<svg xmlns="http://www.w3.org/2000/svg" version="1.1" xmlns:xlink="http://www.w3.org/1999/xlink" xmlns:svgjs="http://svgjs.dev/svgjs" width="1000" height="242" viewBox="0 0 1000 242"><g transform="matrix(1,0,0,1,-0.6056348047761162,-0.6000984393031956)"><svg viewBox="0 0 396 96" data-background-color="#ffffff" preserveAspectRatio="xMidYMid meet" height="242" width="1000" xmlns="http://www.w3.org/2000/svg" xmlns:xlink="http://www.w3.org/1999/xlink"><g id="tight-bounds" transform="matrix(1,0,0,1,0.24008861730862918,0.2380556472007811)"><svg viewBox="0 0 395.52 95.52388877357151" height="95.52388877357151" width="395.52"><g><svg viewBox="0 0 395.52 95.52388877357151" height="95.52388877357151" width="395.52"><g><svg viewBox="0 0 395.52 95.52388877357151" height="95.52388877357151" width="395.52"><g><svg viewBox="0 0 395.52 95.52388877357151" height="95.52388877357151" width="395.52"><g><svg viewBox="0 0 395.52 95.52388877357151" height="95.52388877357151" width="395.52"><path d="M394.594 20.488C392.735 10.573 387.435 7.816 387.435 7.816 371.165-2.397 350.86-0.195 332.619 1.272 300.414 1.332 268.339 3.513 236.208 4.683 168.767 4.861 100.749 1.927 33.643 9.165 27.339 11.386-6.54 9.601 1.121 21.757 3.129 26.814 10.456 32.426 10.232 37.067 11.236 37.88 12.631 36.015 13.226 37.185 15.309 40.339 18.711 38.851 21.501 40.715 17.614 45.693 20.403 49.837 23.062 54.18 18.377 55.311 12.371 54.775 9.675 58.523 9.396 61.24 7.89 60.725 6.235 60.606 5.026 60.526 2.59 60.824 2.999 61.676 4.394 64.592-1.594 66.277 2.162 69.133-0.422 72.226 3.948 74.903 3.353 78.255 3.278 78.929 3.687 79.504 4.338 79.663 7.22 80.516 3.018 82.181 3.464 83.986 33.029 96.321 65.104 87.793 95.394 93.465 103.259 89.499 97.346 94.873 100.489 94.04 102.943 93.068 104.728 97.094 107.499 94.813 107.927 94.159 107.276 92.612 108.8 92.91 109.6 93.068 110.307 93.029 110.418 92.117 110.586 90.748 109.117 91.601 108.726 90.887 112.947 87.278 111.906 95.865 115.866 95.508 115.68 94.457 114.528 92.949 116.889 93.148 119.232 91.641 119.306 90.391 121.389 93.782 121.463 94.516 121.835 95.032 122.43 95.389 128.938 91.7 135.409 96.697 142.233 95.032 146.417 93.207 150.433 96.023 154.672 95.329 156.16 94.774 157.666 93.782 159.098 95.448 176.632 95.805 195.319 94.318 211.943 95.508 256.364 93.287 303.835 96.42 350.674 93.485 361.719 92.354 373.192 90.748 383.958 89.459 383.958 89.459 392.679 85.929 392.679 70.065S394.538 56.183 394.817 43.551C395.096 30.919 396.398 30.403 394.538 20.488Z" opacity="1" fill="#5da9e9" data-fill-palette-color="tertiary"></path><g transform="matrix(1,0,0,1,55.76832,26.230666666666668)"><svg width="283.98335999999995" viewBox="0.75 -35.04999923706055 235.0800018310547 35.64999771118164" height="43.062555440238185" data-palette-color="#ffffff"><path d="M0.75-34.45L25.35-34.45 24.85-30.4 15.3-30.4 15.3 0 10.55 0 10.55-30.4 0.75-30.4 0.75-34.45ZM30.85-34.45L49.5-34.45 48.95-30.65 35.6-30.65 35.6-19.4 47.2-19.4 47.2-15.6 35.6-15.6 35.6-3.8 49.9-3.8 49.9 0 30.85 0 30.85-34.45ZM69.64-35.05Q72.75-35.05 74.87-34.25 77-33.45 79.19-31.65L79.19-31.65 76.59-28.6Q73.44-31.15 69.94-31.15L69.94-31.15Q65.64-31.15 63.02-27.85 60.39-24.55 60.39-17.25L60.39-17.25Q60.39-10.15 62.99-6.78 65.59-3.4 69.89-3.4L69.89-3.4Q72.09-3.4 73.75-4.15 75.39-4.9 77.25-6.25L77.25-6.25 79.59-3.25Q78-1.6 75.5-0.5 73 0.6 69.75 0.6L69.75 0.6Q65.55 0.6 62.27-1.48 58.99-3.55 57.17-7.58 55.34-11.6 55.34-17.25L55.34-17.25Q55.34-22.9 57.24-26.93 59.14-30.95 62.39-33 65.64-35.05 69.64-35.05L69.64-35.05ZM109.59 0L104.84 0 104.84-16.15 90.34-16.15 90.34 0 85.59 0 85.59-34.45 90.34-34.45 90.34-20.05 104.84-20.05 104.84-34.45 109.59-34.45 109.59 0ZM124.34 0L119.59 0 119.59-34.45 137.89-34.45 137.34-30.65 124.34-30.65 124.34-18.9 135.59-18.9 135.59-15.15 124.34-15.15 124.34 0ZM167.74-34.45L167.74-11.05Q167.74-7.6 166.31-4.98 164.89-2.35 162.16-0.88 159.44 0.6 155.64 0.6L155.64 0.6Q149.89 0.6 146.76-2.58 143.64-5.75 143.64-11.05L143.64-11.05 143.64-34.45 148.39-34.45 148.39-11.4Q148.39-7.4 150.19-5.4 151.99-3.4 155.64-3.4L155.64-3.4Q159.34-3.4 161.14-5.38 162.94-7.35 162.94-11.4L162.94-11.4 162.94-34.45 167.74-34.45ZM201.39-34.45L201.39 0 195.04 0 181.04-29.25Q181.34-25.8 181.51-22.88 181.69-19.95 181.69-15.8L181.69-15.8 181.69 0 177.24 0 177.24-34.45 183.44-34.45 197.59-5.15Q197.44-6.45 197.19-9.7 196.94-12.95 196.94-15.65L196.94-15.65 196.94-34.45 201.39-34.45ZM218.58-34.45Q226.38-34.45 231.11-30.83 235.83-27.2 235.83-17.4L235.83-17.4Q235.83-7.85 231.11-3.93 226.38 0 219.63 0L219.63 0 211.38 0 211.38-34.45 218.58-34.45ZM219.63-30.65L216.13-30.65 216.13-3.75 219.98-3.75Q224.78-3.75 227.78-6.7 230.78-9.65 230.78-17.4L230.78-17.4Q230.78-22.85 229.23-25.78 227.68-28.7 225.28-29.68 222.88-30.65 219.63-30.65L219.63-30.65Z" opacity="1" transform="matrix(1,0,0,1,0,0)" fill="#ffffff" class="undefined-text-0" data-fill-palette-color="quaternary" id="text-0"></path></svg></g></svg></g></svg></g></svg></g><g></g></svg></g><defs></defs></svg><rect width="95.52" height="95.52388877357151" fill="none" stroke="none" visibility="hidden"></rect></g></svg></g></svg>